PathFileType	4	(X/Y/Z)	s08c0401.trc
DataRate	CameraRate	NumFrames	NumMarkers	Units	OrigDataRate	OrigDataStartFrame	OrigNumFrames
200	200	7	50	mm	200	750	2000
Frame#	Time	racr			lacr			c7			jug			rlel			rdr			llel			ldr			s2			lic			ric			lasi			rasi			rpsi			lpsi			rgt			lgt			rth1			rth2			rth3			rth4			rlfc			rmfc			rsh1			rsh2			rsh3			rsh4			rlmal			rmmal			rcal			rtoe			rmt5			lth1			lth2			lth4			lth3			llfc			lmfc			llmal			lmmal			lcal			lmt5			lsh1			lsh2			lsh3			lsh4			ltoe			SBIKE			LBIKE			RBIKE			
		X1	Y1	Z1	X2	Y2	Z2	X3	Y3	Z3	X4	Y4	Z4	X5	Y5	Z5	X6	Y6	Z6	X7	Y7	Z7	X8	Y8	Z8	X9	Y9	Z9	X10	Y10	Z10	X11	Y11	Z11	X12	Y12	Z12	X13	Y13	Z13	X14	Y14	Z14	X15	Y15	Z15	X16	Y16	Z16	X17	Y17	Z17	X18	Y18	Z18	X19	Y19	Z19	X20	Y20	Z20	X21	Y21	Z21	X22	Y22	Z22	X23	Y23	Z23	X24	Y24	Z24	X25	Y25	Z25	X26	Y26	Z26	X27	Y27	Z27	X28	Y28	Z28	X29	Y29	Z29	X30	Y30	Z30	X31	Y31	Z31	X32	Y32	Z32	X33	Y33	Z33	X34	Y34	Z34	X35	Y35	Z35	X36	Y36	Z36	X37	Y37	Z37	X38	Y38	Z38	X39	Y39	Z39	X40	Y40	Z40	X41	Y41	Z41	X42	Y42	Z42	X43	Y43	Z43	X44	Y44	Z44	X45	Y45	Z45	X46	Y46	Z46	X47	Y47	Z47	X48	Y48	Z48	X49	Y49	Z49	X50	Y50	Z50	
750	3.7500	814.705141	1412.374763	-151.202867	850.152807	1321.451348	-467.998634	806.081920	1433.526385	-327.046217	574.041958	1244.527759	-8.274586	710.683568	1200.405586	11.609034	785.677730	932.327283	-45.801051	635.024470	1117.137435	-558.741223	768.759713	933.762836	-444.820034	242.575875	1250.604182	-212.464703	369.540236	1218.850458	-389.762433	435.824745	1246.123970	-85.078713	397.485434	1183.476509	-353.372981	439.577466	1174.058909	-120.546125	289.768695	1288.380391	-170.157049	270.193931	1289.412061	-265.612350	351.089860	1132.068049	-33.030641	302.230736	1127.283715	-410.081402	426.835251	974.994794	-38.248355	477.816356	902.923955	-48.933968	486.368665	816.932504	-55.261768	509.106534	916.152677	-61.669102	515.850157	701.937838	-71.852693	486.816942	702.642224	-181.001909	402.568149	636.718065	-36.024747	350.746757	565.839253	-54.149145	272.028459	529.875882	-55.589958	370.223842	547.104816	-86.472983	169.361177	463.559884	-58.058168	194.429880	460.274311	-147.053358	117.457301	518.396321	-108.757458	205.723449	234.125940	-107.025869	148.149040	307.755017	-40.399329	382.416726	1018.202984	-426.690287	453.729654	968.234179	-432.931002	482.096408	990.897201	-426.475772	490.099490	887.356847	-437.836097	554.894535	770.417193	-422.112931	567.570592	743.578743	-314.553105	364.840072	397.158559	-402.155676	399.371432	410.833016	-317.601268	291.555554	389.940151	-362.107772	477.337830	284.665140	-427.278115	498.844011	654.547897	-439.815182	480.376006	572.432148	-420.769669	422.608524	506.167453	-415.794955	504.654504	565.491222	-389.859269	565.470923	296.493342	-361.557839	-138.060023	943.309701	-229.954093	17.844362	79.760077	-427.744491	17.913072	80.094191	-29.467532	
751	3.7550	814.792107	1413.783687	-150.034407	850.765558	1322.904533	-466.707601	805.661310	1434.501548	-325.395837	577.376548	1243.761866	-8.161038	710.882118	1200.968962	13.382731	785.274440	932.453531	-45.862107	635.764676	1118.721212	-558.645106	768.968209	933.759350	-444.733902	242.312342	1247.579535	-212.753129	370.204594	1215.902824	-390.549981	435.714790	1244.396207	-85.470557	397.740775	1179.998344	-354.184950	439.527213	1172.821931	-121.128877	289.005404	1285.079979	-171.314684	268.992813	1285.896830	-265.134936	351.757381	1130.042132	-32.872168	301.790638	1121.947135	-409.632910	427.248583	972.994351	-36.871970	479.602400	901.897726	-48.498246	489.472149	816.116292	-55.775973	510.212290	916.052049	-62.385230	521.310822	703.903627	-73.546230	492.674106	704.374614	-182.568113	406.541993	642.685475	-37.964047	353.572836	572.606086	-55.140365	273.650403	538.472642	-56.595593	373.061382	553.265033	-86.478810	170.564415	474.299686	-58.585498	198.533058	475.019833	-155.514312	118.413718	529.113405	-109.071827	207.679320	245.134702	-107.312171	149.878082	318.624284	-40.665177	380.673568	1011.642674	-426.303094	451.125290	960.471879	-432.661939	479.867516	982.740153	-426.852561	486.185033	879.022290	-436.906157	549.599467	762.560174	-421.489951	562.352522	735.650559	-314.358375	363.737561	387.199459	-403.038003	397.342870	401.203798	-319.987259	290.754284	380.909345	-363.287320	475.860000	273.334930	-427.085098	494.907387	645.459393	-439.300225	477.592080	564.457240	-422.789615	421.162597	495.814060	-415.818038	501.501063	557.005378	-388.892706	564.147944	284.425871	-361.340410	-138.146189	943.248476	-230.139933	17.799195	79.711218	-427.801001	17.927930	80.247825	-29.401535	
752	3.7600	815.046174	1415.060621	-148.544804	851.367502	1324.537555	-465.529749	805.228721	1435.605815	-323.680205	580.924362	1242.820220	-7.940661	711.233393	1201.889303	15.576255	784.853590	932.661557	-46.022510	636.545531	1120.435229	-558.468851	769.203580	933.547581	-444.644823	241.980979	1244.548179	-212.890553	371.091210	1212.971508	-391.376073	435.211588	1242.694206	-85.954491	398.102608	1176.096975	-355.169411	439.184132	1171.378133	-121.540982	288.327710	1282.868385	-171.446438	269.485610	1282.200719	-265.187577	351.680928	1127.867600	-32.869425	301.699509	1116.489483	-409.402307	427.843958	970.866206	-35.664954	481.682968	901.333278	-48.746721	493.247662	815.546589	-56.934015	511.427740	915.961470	-63.554980	526.872247	706.059782	-75.535377	498.493401	706.529624	-184.196836	410.846452	649.076633	-40.044039	355.945123	579.473617	-56.630453	276.482478	546.758538	-57.179598	375.577583	558.981783	-87.096950	172.104427	485.010861	-59.113074	200.142182	484.881091	-155.260428	119.758225	539.715011	-109.542375	210.450210	256.263772	-107.713502	152.378347	329.439950	-40.940948	379.081287	1005.029548	-426.027808	448.575112	952.552760	-432.348397	477.750304	974.337946	-427.001678	481.999466	870.411570	-435.881563	543.726008	754.617116	-421.096607	556.085889	727.336290	-314.097723	362.041905	377.229157	-403.231558	392.040098	387.461453	-325.317108	289.623472	371.222149	-362.922620	473.633108	262.249443	-426.862874	490.831432	636.373404	-438.396142	474.597544	554.035807	-419.667530	418.875887	485.964626	-415.497429	497.965734	548.338238	-387.800932	562.021256	272.419159	-361.120242	-138.197237	943.178331	-230.361425	17.809856	79.646296	-427.888912	17.815314	80.023711	-29.586150	
753	3.7650	815.103477	1416.658351	-146.696682	851.737712	1326.285475	-463.932264	804.849739	1436.597596	-321.831352	584.493794	1241.773187	-7.666174	711.642019	1203.013122	18.000051	784.814840	932.768981	-46.242322	637.418369	1122.143943	-558.170281	769.475141	933.177362	-444.422926	241.546228	1241.756965	-213.534654	372.301414	1210.132854	-392.374829	434.307047	1240.980906	-86.514328	398.579195	1171.369032	-356.574122	438.179943	1169.759920	-123.108886	287.388692	1280.679000	-171.532661	268.553547	1280.648605	-267.699309	351.002190	1125.697175	-33.067734	301.939936	1111.001032	-409.360481	428.731362	969.161440	-35.455838	484.498264	901.351159	-49.267978	498.186803	815.753122	-58.307066	513.675022	916.835809	-64.700378	532.775881	708.908838	-77.330532	502.688473	709.342231	-186.276816	415.310333	655.404958	-42.178832	359.277687	586.430303	-57.659041	279.221684	555.242625	-58.098517	378.821741	565.183682	-87.381181	174.158572	495.687131	-59.581986	195.568722	493.935535	-148.321421	121.482860	550.126831	-109.807246	214.157370	267.360006	-108.024927	155.533160	340.216000	-41.188189	377.745291	998.384720	-425.824390	446.154538	944.547197	-431.891865	475.732337	965.810718	-426.990738	478.168419	861.612565	-434.410449	538.019791	746.499524	-419.971316	549.119837	718.818459	-313.733813	359.499551	367.739177	-403.713973	394.592892	380.652844	-318.538869	287.885010	362.109075	-362.995682	470.863727	251.289832	-426.548933	486.165124	627.775273	-437.306391	470.787906	545.100287	-418.767602	415.799354	476.368142	-414.911463	493.981190	539.789825	-386.817883	559.190288	260.606785	-360.665404	-138.242323	943.145073	-230.540388	17.812123	79.595537	-427.927345	17.813271	80.009329	-29.623069	
754	3.7700	815.499723	1417.508310	-144.567676	852.109658	1328.180278	-462.574863	804.582099	1437.674505	-319.735042	587.969775	1240.572183	-7.395497	711.861618	1204.313265	20.695410	784.838022	932.986071	-46.347658	638.386934	1123.880076	-557.748721	769.815763	932.654644	-444.175160	241.150649	1239.113201	-216.391417	373.824203	1207.421195	-393.450713	433.012831	1239.374314	-87.118800	399.104748	1166.444600	-357.800917	437.231644	1168.507373	-123.408378	286.544728	1278.425227	-172.237912	268.203390	1277.744540	-268.939501	349.657936	1123.576053	-33.603068	302.543556	1105.630362	-409.528706	430.668591	968.758082	-36.484215	488.065296	902.437763	-50.553759	503.888803	817.226711	-59.747113	517.387561	918.860857	-66.492940	539.163768	712.184825	-79.271400	507.845801	711.690720	-187.894139	420.118937	661.775521	-44.267147	362.943461	593.374796	-58.831018	282.397002	563.673772	-59.031248	382.299426	571.213535	-88.005854	176.584071	506.327344	-60.165219	198.391038	504.141681	-149.111672	123.545130	560.410295	-110.054589	218.508643	278.516423	-108.240709	159.406121	350.818461	-41.511137	376.659534	991.814662	-425.736542	443.765354	936.478998	-431.685518	473.888058	957.096182	-426.724147	474.097780	852.802759	-432.973811	532.093909	738.157752	-418.359391	542.496630	710.440616	-312.405553	357.122417	358.011993	-403.367642	394.080008	373.056421	-321.750975	285.488740	353.189321	-363.150550	467.500077	240.536013	-426.210682	481.139441	619.158386	-435.818879	466.423638	536.426479	-417.926162	412.072289	467.123650	-414.345542	489.543306	531.164065	-385.813016	555.779367	248.979377	-360.196164	-138.247603	943.085769	-230.671372	17.813027	79.575803	-427.948707	17.825143	80.061308	-29.652037	
755	3.7750	815.861249	1417.887558	-142.485694	852.256038	1330.203511	-460.949996	804.371321	1438.656568	-317.279507	591.178960	1239.323868	-7.119858	712.176113	1205.464622	23.543028	785.124839	933.167920	-46.339536	639.500514	1125.514480	-557.146143	769.211317	930.454179	-440.790616	240.703409	1236.811813	-219.112215	375.633049	1204.701262	-394.419842	431.359198	1237.871774	-87.811359	399.912058	1161.901463	-358.997931	436.146015	1167.159516	-123.520063	285.526730	1276.323600	-172.961999	268.263746	1274.605042	-270.963185	347.738255	1121.690028	-34.486712	303.427775	1100.524809	-409.918869	433.576050	969.581632	-38.776725	492.658587	904.648516	-52.505005	510.322297	819.867540	-62.188368	521.327548	921.604733	-68.226040	545.831512	715.834702	-81.346564	513.091637	714.100530	-189.322346	425.482369	667.925707	-46.330331	367.045581	600.292428	-60.067219	285.987993	572.016953	-60.115721	385.966316	577.583981	-88.814179	179.956812	516.819690	-60.734949	206.072518	510.998822	-150.163140	125.923613	570.640044	-110.759798	223.430413	289.662812	-108.348169	163.982192	361.349762	-41.737857	375.768619	985.364765	-425.766181	441.591961	928.517004	-431.038874	472.146107	948.486626	-426.283902	470.015717	844.133652	-431.367991	526.282281	729.709935	-416.726937	535.372989	702.287938	-310.850867	354.118497	348.118753	-402.978879	401.609491	371.494276	-334.454620	282.441238	344.550672	-363.492807	463.450359	229.963786	-425.793048	475.460121	610.708508	-434.584508	461.471533	527.866894	-416.989617	407.761622	457.994531	-413.879370	484.541895	522.677470	-384.825201	551.762181	237.501527	-359.677076	-138.192938	943.073121	-230.817470	17.823258	79.587380	-427.931826	17.839068	80.072844	-29.628128	
756	3.7800	816.175251	1417.957720	-140.045123	852.199618	1332.371879	-458.920490	804.235793	1439.548817	-314.554869	594.172299	1237.969076	-6.719808	712.571279	1206.265494	26.539064	785.640021	933.267026	-46.196177	640.725726	1127.052197	-556.335835	769.449936	930.037724	-441.023387	240.204140	1234.478126	-220.959873	377.767296	1202.123381	-395.739885	429.365643	1236.560592	-88.508514	400.980281	1157.549601	-359.975845	434.876580	1166.115608	-123.655452	284.200864	1274.411256	-176.701216	268.657426	1271.693654	-273.349586	342.794008	1119.064631	-38.218212	304.678800	1095.799081	-410.534468	436.863277	971.288002	-41.398422	497.610530	907.571946	-54.499728	517.256800	823.269443	-63.938119	525.953551	925.277698	-69.986940	552.648992	719.703986	-83.573520	518.990177	717.172150	-191.056805	431.245128	673.919609	-48.309860	371.780701	607.019516	-61.534276	290.225313	580.180660	-61.313145	389.705894	584.405543	-89.604625	183.619273	526.825252	-61.579562	209.613106	520.947937	-151.116644	128.809542	580.618108	-110.889453	229.389010	300.355790	-108.778037	169.134777	371.612301	-41.984263	375.115630	979.113719	-425.894279	439.496831	920.632211	-430.271505	470.509501	939.949869	-425.555742	466.003303	835.909524	-429.840176	520.083090	721.155221	-414.344096	528.129330	694.254783	-309.288861	350.161476	339.106201	-403.257666	397.190884	362.239380	-334.331369	278.713727	336.233881	-364.056196	458.808369	219.640773	-425.413754	469.416507	602.487897	-433.330967	455.875012	520.726199	-418.559473	402.896368	449.182898	-413.585802	478.994103	514.338314	-383.897255	547.068607	226.421864	-359.197730	-138.208577	943.050941	-230.721302	17.824301	79.570004	-427.914051	17.873353	80.025187	-29.642969	
